<?xml version="1.0" standalone="no"?>
<!DOCTYPE svg PUBLIC "-//W3C//DTD SVG 1.1//EN" "http://www.w3.org/Graphics/SVG/1.1/DTD/svg11.dtd" >
<svg xmlns="http://www.w3.org/2000/svg">
<metadata>
Created by FontForge 20120731 at Fri Jun 17 13:55:49 2016
 By admin
</metadata>
<defs>
<font id="haloIcon" horiz-adv-x="1024" >
  <font-face 
    font-family="haloIcon"
    font-weight="500"
    font-stretch="normal"
    units-per-em="1024"
    panose-1="2 0 6 3 0 0 0 0 0 0"
    ascent="896"
    descent="-128"
    x-height="792"
    bbox="34 -31 967 792"
    underline-thickness="50"
    underline-position="-100"
    unicode-range="U+0078-E611"
  />
<missing-glyph horiz-adv-x="374" 
d="M34 0v682h272v-682h-272zM68 34h204v614h-204v-614z" />
    <glyph glyph-name=".notdef" horiz-adv-x="374" 
d="M34 0v682h272v-682h-272zM68 34h204v614h-204v-614z" />
    <glyph glyph-name=".null" horiz-adv-x="0" 
 />
    <glyph glyph-name="nonmarkingreturn" horiz-adv-x="341" 
 />
    <glyph glyph-name="x" unicode="x" horiz-adv-x="1001" 
d="M281 543q-27 -1 -53 -1h-83q-18 0 -36.5 -6t-32.5 -18.5t-23 -32t-9 -45.5v-76h912v41q0 16 -0.5 30t-0.5 18q0 13 -5 29t-17 29.5t-31.5 22.5t-49.5 9h-133v-97h-438v97zM955 310v-52q0 -23 0.5 -52t0.5 -58t-10.5 -47.5t-26 -30t-33 -16t-31.5 -4.5q-14 -1 -29.5 -0.5
t-29.5 0.5h-32l-45 128h-439l-44 -128h-29h-34q-20 0 -45 1q-25 0 -41 9.5t-25.5 23t-13.5 29.5t-4 30v167h911zM163 247q-12 0 -21 -8.5t-9 -21.5t9 -21.5t21 -8.5q13 0 22 8.5t9 21.5t-9 21.5t-22 8.5zM316 123q-8 -26 -14 -48q-5 -19 -10.5 -37t-7.5 -25t-3 -15t1 -14.5
t9.5 -10.5t21.5 -4h37h67h81h80h64h36q23 0 34 12t2 38q-5 13 -9.5 30.5t-9.5 34.5q-5 19 -11 39h-368zM336 498v228q0 11 2.5 23t10 21.5t20.5 15.5t34 6h188q31 0 51.5 -14.5t20.5 -52.5v-227h-327z" />
    <glyph glyph-name="uniE600" unicode="&#xe600;" 
d="M512 175l-219 400h438zM512 175z" />
    <glyph glyph-name="uniE601" unicode="&#xe601;" 
d="M694 566q-11 11 -21 0l-161 -160l-160 160q-11 11 -22 0t0 -21l160 -161l-160 -161q-11 -10 0 -21q4 -5 10.5 -5t11.5 5l160 160l161 -160q4 -5 10.5 -5t10.5 5q11 11 0 21l-160 161l160 161q11 10 0 21zM512 752q-100 0 -185 -49t-134 -134t-49 -185t49 -185t134 -134
t185 -49t185 49t134 134t49 185t-49 185t-134 134t-185 49zM512 47q-91 0 -169 45t-123 123t-45 169t45 169t123 123t169 45t169 -45t123 -123t45 -169t-45 -169t-123 -123t-169 -45z" />
    <glyph glyph-name="uniE602" unicode="&#xe602;" 
d="M150 141q-8 0 -15 6q-12 10 -7 24l26 88q-52 40 -80.5 94.5t-28.5 114.5q0 76 45 141.5t122 103.5t168 38q127 0 222 -71.5t110 -178.5l-47 -7q-12 90 -93.5 150t-191.5 60q-119 0 -203.5 -69.5t-84.5 -166.5q0 -53 26.5 -100t75.5 -81q14 -10 9 -26l-17 -57l92 37
q7 3 15 1q67 -17 136 -7l7 -47q-75 -10 -148 7l-130 -53q-5 -1 -8 -1zM242 555.5q0 -14.5 11 -24.5t26.5 -10t26 10t10.5 24.5t-10.5 24.5t-26 10t-26.5 -10t-11 -24.5zM445 549q0 -14 10.5 -24t26 -10t26.5 10t11 24t-11 24t-26.5 10t-26 -10t-10.5 -24zM875 -4q-5 0 -8 1
l-109 45q-38 -9 -77 -9q-118 0 -201.5 71t-83.5 171.5t83.5 171.5t202 71t202 -71t83.5 -172q0 -50 -23.5 -96t-67.5 -81l22 -72q4 -14 -7 -24q-6 -6 -16 -6zM760 90q5 0 8 -2l71 -29l-12 41q-5 16 9 26q40 28 62.5 67t22.5 82q0 81 -70.5 138t-169 57t-168.5 -57
t-70 -137.5t70 -138t169 -57.5q37 0 72 9q1 0 3 0.5t3 0.5zM739 349q0 -11 8 -18.5t20 -7.5t20.5 7.5t8.5 18.5t-8.5 18.5t-20.5 7.5t-20 -7.5t-8 -18.5zM568 343q0 -11 8 -18.5t20 -7.5t20 7.5t8 18.5t-8 18.5t-20 7.5t-20 -7.5t-8 -18.5z" />
    <glyph glyph-name="uniE603" unicode="&#xe603;" 
d="M526 14q-35 0 -55 29q-1 1 -41 57q-42 56 -66 91t-58 90t-50.5 99.5t-16.5 80.5q0 118 84.5 202.5t203 84.5t202.5 -84.5t84 -202.5q0 -36 -16.5 -80.5t-50.5 -99.5t-58 -90t-66 -91q-38 -54 -40 -57q-21 -29 -56 -29zM526 709q-103 0 -175.5 -73t-72.5 -175
q0 -31 16.5 -73t50 -95t55.5 -85t61 -86q21 -28 41 -57q9 -11 24.5 -11t23.5 11q20 29 42 57q38 52 61 85.5t56 86t49.5 94.5t16.5 73q-1 102 -73.5 175t-175.5 73zM526 336q-53 0 -91 37.5t-38 91t38 91t91 37.5t91 -37.5t38 -91t-38 -91t-91 -37.5zM526 555
q-37 0 -63.5 -26.5t-26.5 -64t26.5 -64t63.5 -26.5t63.5 26.5t26.5 64t-26.5 64t-63.5 26.5z" />
    <glyph glyph-name="uniE604" unicode="&#xe604;" 
d="M512 337q-89 0 -151.5 62.5t-62.5 151.5t63 152.5t151.5 63.5t151.5 -63t63 -152t-63 -152t-152 -63zM512.5 725q-71.5 0 -122.5 -51t-51 -122.5t51 -122.5t122.5 -51t122.5 51t51 122.5t-51 122.5t-122.5 51zM827.5 12q-8.5 0 -14.5 6t-6 14q0 122 -86.5 208.5
t-208 86.5t-208.5 -86.5t-87 -208.5q0 -8 -6 -14t-14.5 -6t-14.5 6t-6 14q0 91 45.5 168.5t122.5 122.5t168.5 45t169 -45t122.5 -122.5t45 -168.5q0 -8 -6.5 -14t-15 -6z" />
    <glyph glyph-name="uniE605" unicode="&#xe605;" 
d="M895 154q0 -51 -36 -87q-51 -51 -119.5 -62.5t-140.5 11.5t-141 67.5t-130 105.5q-78 77 -133 176t-55 192q0 97 65 161q18 18 49.5 31t65.5 5q19 -4 45.5 -21t53 -41t44.5 -58t18 -66q0 -45 -35 -80q-44 -45 -77 -41q0 -21 22.5 -59t60.5 -76q43 -42 80.5 -63t55.5 -21
q-2 29 43 74q48 49 112 30q52 -15 96.5 -66t52.5 -88q3 -14 3 -24zM181 557q0 -76 47.5 -167t128.5 -172q76 -76 162.5 -122.5t169.5 -51.5t141 52q24 24 24 58q0 5 -2 16q-5 26 -42 68.5t-78 54.5q-40 12 -72 -20q-31 -31 -31 -44v-3q2 -16 -7 -26q-12 -13 -32 -13
q-31 -1 -76.5 25.5t-90.5 70.5q-42 43 -68.5 88.5t-26.5 76.5q0 22 13 34q11 10 29 7q16 -4 47 28q23 23 23 51q0 44 -47.5 91.5t-81.5 54.5q-18 4 -38 -3t-27.5 -13t-11.5 -9q-53 -53 -53 -132z" />
    <glyph glyph-name="uniE606" unicode="&#xe606;" 
d="M512 1q-104 0 -192.5 51t-139.5 139.5t-51 192.5t51 192.5t139.5 139.5t192.5 51t192.5 -51t139.5 -139.5t51 -192.5t-51 -192.5t-139.5 -139.5t-192.5 -51zM512 719q-91 0 -168.5 -44.5t-122 -122t-44.5 -168.5t44.5 -168.5t122 -122t168.5 -44.5t168.5 44.5t122 122
t44.5 168.5t-44.5 168.5t-122 122t-168.5 44.5zM692 337h-227v227q0 10 6.5 16.5t16.5 6.5t16.5 -6.5t6.5 -16.5v-181h181q10 0 16.5 -6.5t6.5 -16.5t-6.5 -16.5t-16.5 -6.5z" />
    <glyph glyph-name="uniE607" unicode="&#xe607;" 
d="M461 114q-134 0 -228 94q-62 62 -84 145t0 166.5t84 144.5q95 95 228 95q134 0 228 -95q46 -46 70.5 -106.5t24.5 -121.5t-24.5 -121.5t-70.5 -106.5q-94 -94 -228 -94zM461.5 676q-99.5 0 -169.5 -70t-70 -169.5t70 -169.5q71 -71 169 -71q100 0 170 71q70 70 70 169.5
t-70 169.5t-169.5 70zM692 262l203 -202l-59 -59l-203 203z" />
    <glyph glyph-name="uniE608" unicode="&#xe608;" 
d="M817 295l-307 301v0l-306 -301l51 -52l219 215v-456h73v456l219 -215zM223 759h574v-73h-574v73z" />
    <glyph glyph-name="uniE609" unicode="&#xe609;" 
d="M803 263l-303 107v321q0 7 -5 11.5t-11 4.5q-71 0 -136 -27q-63 -27 -111 -75t-74 -111q-28 -65 -28 -135.5t28 -135.5q26 -63 74 -111t111 -75q65 -27 136 -27q112 0 203 66q89 64 126 167q2 6 -1 12t-9 8zM484 42q-131 0 -224 93t-93 224q0 126 87.5 218t213.5 98v-316
v-1v-2v-1v-1h1v-2h1v-2h1v-2h1l1 -1l1 -1v0q1 -1 2 -1v-1h2v0l299 -105q-36 -89 -116.5 -143t-176.5 -54zM883 321q12 67 0 134q-12 64 -45 121q-69 118 -196 164q-32 12 -65 18h-6h-4q-6 0 -11 -4.5t-5 -11.5v-331v-1v-1l1 -1v0v-1v-1q0 -1 1 -1v-1q1 -1 1 -2l1 -1l1 -1
l1 -1l1 -1h1l1 -1v0h1q1 -1 2 -1l300 -88v0h1h1h1h2h1h1h2v1h2v1h1h1v1h1h1v1h1v1h1v1q1 1 1 2h1v2v1h1v1v1zM854 344l-271 79v301q25 -5 48 -13q113 -42 175.5 -145t47.5 -222z" />
    <glyph glyph-name="uniE60A" unicode="&#xe60a;" 
d="M747 758h-470q-15 0 -26 -10.5t-11 -25.5v-676q0 -15 11 -25.5t26 -10.5h470q15 0 26 10.5t11 25.5v676q0 15 -11 25.5t-26 10.5zM752 46q0 -4 -5 -4h-470q-5 0 -5 4v676q0 4 5 4h470q5 0 5 -4v-676zM384 638h256q6 0 11 4.5t5 11t-5 11.5t-11 5h-256q-6 0 -11 -5
t-5 -11.5t5 -11t11 -4.5zM512 483q-74 0 -126 -52t-52 -125.5t52 -125.5t126 -52t126 52t52 125.5t-52 125.5t-126 52zM512 159q-60 0 -103 43t-43 103.5t43 103.5t103 43t103 -43t43 -103.5t-43 -103.5t-103 -43zM512 364q-24 0 -41 -17t-17 -41.5t17 -41.5t41 -17t41 17
t17 41.5t-17 41.5t-41 17zM512 279q-11 0 -19 7.5t-8 18.5t8 19t19 8t19 -8t8 -19t-8 -18.5t-19 -7.5zM332 139q-16 0 -27 -11t-11 -27t11 -27.5t27 -11.5t27 11.5t11 27.5t-11 27t-27 11zM332 88q-5 0 -9 3.5t-4 9t4 9.5t9 4t9 -4t4 -9.5t-4 -9t-9 -3.5zM692 139
q-16 0 -27 -11t-11 -27t11 -27.5t27 -11.5t27 11.5t11 27.5t-11 27t-27 11zM692 88q-5 0 -9 3.5t-4 9t4 9.5t9 4t9 -4t4 -9.5t-4 -9t-9 -3.5z" />
    <glyph glyph-name="uniE60B" unicode="&#xe60b;" 
d="M669 760h-314q-16 0 -27 -11t-11 -27v-33q0 -16 11 -27t27 -11h314q16 0 27 11t11 27v33q0 16 -11 27t-27 11zM674 689q0 -5 -5 -5h-314q-5 0 -5 5v33q0 5 5 5h314q5 0 5 -5v-33zM405 566v-361q0 -7 5 -12t11.5 -5t11.5 5t5 12v361q0 7 -5 11.5t-11.5 4.5t-11.5 -4.5
t-5 -11.5zM496 566v-361q0 -7 4.5 -12t11.5 -5t11.5 5t4.5 12v361q0 7 -4.5 11.5t-11.5 4.5t-11.5 -4.5t-4.5 -11.5zM586 566v-361q0 -7 5 -12t11.5 -5t11.5 5t5 12v361q0 7 -5 11.5t-11.5 4.5t-11.5 -4.5t-5 -11.5zM675 616.5q0 6.5 -4.5 11.5t-11.5 5h-294q-7 0 -11.5 -5
t-4.5 -11.5t4.5 -11.5t11.5 -5h294q7 0 11.5 5t4.5 11.5zM669 117h-314q-16 0 -27 -11t-11 -27v-33q0 -16 11 -27t27 -11h314q16 0 27 11t11 27v33q0 16 -11 27t-27 11zM674 46q0 -5 -5 -5h-314q-5 0 -5 5v33q0 5 5 5h314q5 0 5 -5v-33zM365 135h294q7 0 11.5 5t4.5 11.5
t-4.5 11.5t-11.5 5h-294q-7 0 -11.5 -5t-4.5 -11.5t4.5 -11.5t11.5 -5z" />
    <glyph glyph-name="uniE60C" unicode="&#xe60c;" 
d="M850 686h-676q-15 0 -25.5 -10.5t-10.5 -25.5v-532q0 -15 10.5 -25.5t25.5 -10.5h676q15 0 25.5 10.5t10.5 25.5v532q0 15 -10.5 25.5t-25.5 10.5zM174 654h676q4 0 4 -4v-108h-684v108q0 4 4 4zM850 114h-676q-4 0 -4 4v393h684v-393q0 -4 -4 -4zM780.5 560
q15.5 0 26.5 11t11 26.5t-11 27t-26.5 11.5t-27 -11.5t-11.5 -27t11.5 -26.5t27 -11zM780 610q5 0 8.5 -3.5t3.5 -8.5t-3.5 -8.5t-8.5 -3.5t-8.5 3.5t-3.5 8.5t3.5 8.5t8.5 3.5zM721 247l40 40q7 7 4 16t-12 11l-132 29q-8 2 -14.5 -4t-4.5 -15l30 -132q2 -9 11 -11
q2 -1 4 -1q7 0 11 5l40 40l54 -54q4 -4 11 -4t11 4q11 11 0 23zM656 227l-17 80l79 -18zM448 425h-206q-7 0 -11.5 -4.5t-4.5 -11t4.5 -11t11.5 -4.5h206q6 0 11 4.5t5 11t-5 11t-11 4.5zM448 333h-206q-7 0 -11.5 -4.5t-4.5 -11t4.5 -11.5t11.5 -5h206q6 0 11 5t5 11.5
t-5 11t-11 4.5zM448 241h-206q-7 0 -11.5 -5t-4.5 -11.5t4.5 -11t11.5 -4.5h206q6 0 11 4.5t5 11t-5 11.5t-11 5z" />
    <glyph glyph-name="uniE60D" unicode="&#xe60d;" 
d="M808 556h-191q67 24 86 42q27 28 27 66.5t-27.5 66t-66 27.5t-66.5 -27q-21 -22 -50 -108q-4 -12 -8 -26q-4 14 -8 26q-29 86 -50 108q-28 27 -66.5 27t-66 -27.5t-27.5 -66t27 -66.5q19 -18 86 -42h-191q-15 0 -25.5 -10.5t-10.5 -25.5v-96q0 -15 10.5 -25.5t25.5 -10.5
h15v-362q0 -7 5 -11.5t11 -4.5h526q7 0 11.5 4.5t4.5 11.5v362h19q15 0 25.5 10.5t10.5 25.5v96q0 15 -10.5 25.5t-25.5 10.5zM593 708q18 18 43.5 18t43.5 -18t18 -43.5t-18 -43.5q-22 -23 -145 -58q35 123 58 145zM344 708q18 18 43.5 18t43.5 -18q23 -22 58 -145
q-123 35 -145 58q-18 18 -18 43.5t18 43.5zM247 419h-31q-4 0 -4 5v96q0 4 4 4h280v-482h-233v361q0 7 -4.5 11.5t-11.5 4.5zM812 424q0 -5 -4 -5h-35q-6 0 -11 -4.5t-5 -11.5v-361h-229v482h280q4 0 4 -4v-96z" />
    <glyph glyph-name="uniE60E" unicode="&#xe60e;" 
d="M847 755h-670q-17 0 -28.5 -11.5t-11.5 -28.5v-544q0 -17 11.5 -28.5t28.5 -11.5h670q17 0 28.5 11.5t11.5 28.5v544q0 17 -11.5 28.5t-28.5 11.5zM852 171q0 -5 -5 -5h-670q-5 0 -5 5v544q0 2 1.5 3.5t3.5 1.5h670q5 0 5 -5v-544zM743 35h-462q-8 0 -13 -5.5t-5 -12.5
t5 -12t13 -5h462q8 0 13 5t5 12t-5 12.5t-13 5.5z" />
    <glyph glyph-name="uniE60F" unicode="&#xe60f;" 
d="M815 760h-557q-16 0 -27 -11.5t-11 -27.5v-129h-33q-7 0 -12 -5t-5 -11.5t5 -11.5t12 -5h33v-95h-33q-7 0 -12 -4.5t-5 -11.5t5 -11.5t12 -4.5h33v-96h-33q-7 0 -12 -4.5t-5 -11.5t5 -11.5t12 -4.5h33v-95h-33q-7 0 -12 -5t-5 -11.5t5 -11.5t12 -5h33v-129
q0 -16 11 -27.5t27 -11.5h557q16 0 27.5 11.5t11.5 27.5v674q0 16 -11.5 27.5t-27.5 11.5zM253 47v129h33q7 0 11.5 5t4.5 11.5t-4.5 11.5t-11.5 5h-33v95h33q7 0 11.5 4.5t4.5 11.5t-4.5 11.5t-11.5 4.5h-33v96h33q7 0 11.5 4.5t4.5 11.5t-4.5 11.5t-11.5 4.5h-33v95h33
q7 0 11.5 5t4.5 11.5t-4.5 11.5t-11.5 5h-33v129q0 6 5 6h407v-686h-407q-5 0 -5 6zM821 47q0 -6 -6 -6h-117v686h117q6 0 6 -6v-674z" />
    <glyph glyph-name="uniE610" unicode="&#xe610;" 
d="M719.5 674q-85.5 86 -207.5 86t-207.5 -86t-85.5 -208q0 -68 68 -184q38 -65 128 -187q30 -40 42 -58q20 -29 55 -29t55 29q12 18 42 58q90 122 128 187q68 116 68 184q0 122 -85.5 208zM581 116q-30 -41 -42 -59q-10 -14 -27 -14t-27 14q-12 18 -42 59q-42 57 -65.5 91
t-57.5 88t-50.5 96.5t-16.5 74.5q0 107 76 183t183 76t183 -76t76 -183q0 -32 -16.5 -74.5t-50.5 -96.5t-57.5 -88t-65.5 -91zM512 601q-54 0 -92 -38.5t-38 -92t38 -92t92 -38.5t92 38.5t38 92t-38 92t-92 38.5zM512 375q-39 0 -67 28t-28 67.5t28 67.5t67 28t67 -28
t28 -67.5t-28 -67.5t-67 -28z" />
    <glyph glyph-name="uniE611" unicode="&#xe611;" 
d="M349 148q0 -23 -16.5 -40t-40.5 -17q-23 0 -39.5 17t-16.5 40t16.5 39.5t40 16.5t40 -16.5t16.5 -39.5zM568 57q0 -23 -16.5 -39.5t-39.5 -16.5t-40 16.5t-17 39.5t17 40t40 17t39.5 -17t16.5 -40zM258 367.5q0 -23.5 -16.5 -40t-40 -16.5t-40 16.5t-16.5 40t16.5 40
t40 16.5t40 -16.5t16.5 -40zM788 148q0 -23 -16.5 -40t-39.5 -17q-24 0 -40.5 17t-16.5 40t16.5 39.5t40 16.5t40 -16.5t16.5 -39.5zM363 587.5q0 -29.5 -21 -50t-50 -20.5t-49.5 20.5t-20.5 50t20.5 50t49.5 20.5t50 -20.5t21 -50zM879 367.5q0 -23.5 -16.5 -40t-40 -16.5
t-40 16.5t-16.5 40t16.5 40t40 16.5t40 -16.5t16.5 -40zM597 678.5q0 -35.5 -25 -60t-60 -24.5t-60 24.5t-25 60t25 60t60 24.5t60 -24.5t25 -60zM831 588q0 -41 -29.5 -70t-69.5 -29q-41 0 -70 29t-29 70q0 40 29 69t70 29q40 0 69.5 -29t29.5 -69z" />
  </font>
</defs>
</svg>
